<?xml version="1.0" encoding="utf-8"?>
<svg xmlns="http://www.w3.org/2000/svg" xmlns:xlink="http://www.w3.org/1999/xlink" style="margin: auto; background: rgb(38, 70, 83); display: block; shape-rendering: auto; animation-play-state: running; animation-delay: 0s;" width="400px" height="400px" viewBox="0 0 100 100" preserveAspectRatio="xMidYMid">
<defs style="animation-play-state: running; animation-delay: 0s;">
  <clipPath id="ldio-umnf3asyksn-cp" x="0" y="0" width="100" height="100" style="animation-play-state: running; animation-delay: 0s;">
    <path d="M81.3,58.7H18.7c-4.8,0-8.7-3.9-8.7-8.7v0c0-4.8,3.9-8.7,8.7-8.7h62.7c4.8,0,8.7,3.9,8.7,8.7v0C90,54.8,86.1,58.7,81.3,58.7z" style="animation-play-state: running; animation-delay: 0s;"></path>
  </clipPath>
</defs>
<path fill="none" stroke="#264653" stroke-width="2.7928" d="M82 63H18c-7.2,0-13-5.8-13-13v0c0-7.2,5.8-13,13-13h64c7.2,0,13,5.8,13,13v0C95,57.2,89.2,63,82,63z" style="animation-play-state: running; animation-delay: 0s;"></path>
<g clip-path="url(#ldio-umnf3asyksn-cp)" style="animation-play-state: running; animation-delay: 0s;">
  <g style="animation-play-state: running; animation-delay: 0s;">
    <rect x="-100" y="0" width="25" height="100" fill="#2a9d8f" style="animation-play-state: running; animation-delay: 0s;"></rect>
    <rect x="-75" y="0" width="25" height="100" fill="#e9c46a" style="animation-play-state: running; animation-delay: 0s;"></rect>
    <rect x="-50" y="0" width="25" height="100" fill="#f4a261" style="animation-play-state: running; animation-delay: 0s;"></rect>
    <rect x="-25" y="0" width="25" height="100" fill="#e76f51" style="animation-play-state: running; animation-delay: 0s;"></rect>
    <rect x="0" y="0" width="25" height="100" fill="#2a9d8f" style="animation-play-state: running; animation-delay: 0s;"></rect>
    <rect x="25" y="0" width="25" height="100" fill="#e9c46a" style="animation-play-state: running; animation-delay: 0s;"></rect>
    <rect x="50" y="0" width="25" height="100" fill="#f4a261" style="animation-play-state: running; animation-delay: 0s;"></rect>
    <rect x="75" y="0" width="25" height="100" fill="#e76f51" style="animation-play-state: running; animation-delay: 0s;"></rect>
    <animateTransform attributeName="transform" type="translate" dur="1s" repeatCount="indefinite" keyTimes="0;1" values="0;100" style="animation-play-state: running; animation-delay: 0s;"></animateTransform>
  </g>
</g>
<!-- [ldio] generated by https://loading.io/ --></svg>